<svg xmlns="http://www.w3.org/2000/svg" width="155" height="28" viewBox="0 0 155 28" fill="none">
  <path d="M79.6889 20.4797C79.6889 20.0554 79.345 19.7114 78.9206 19.7114C78.4963 19.7114 78.1523 20.0554 78.1523 20.4797V21.1576C78.1523 21.582 78.4963 21.9259 78.9206 21.9259C79.345 21.9259 79.6889 21.582 79.6889 21.1576V20.4797Z" fill="#3F83F8"/>
  <path d="M76.0002 19.5734L75.6851 20.1737C75.488 20.5494 75.6327 21.0138 76.0084 21.211C76.3842 21.4082 76.8486 21.2635 77.0458 20.8877L77.3608 20.2875C77.558 19.9117 77.4132 19.4473 77.0375 19.2501C76.6618 19.053 76.1973 19.1977 76.0002 19.5734Z" fill="#3F83F8"/>
  <path d="M74.5222 17.7643L73.9643 18.1494C73.6151 18.3905 73.5275 18.869 73.7685 19.2182C74.0096 19.5674 74.4881 19.655 74.8373 19.414L75.3952 19.0288C75.7444 18.7878 75.832 18.3093 75.5909 17.9601C75.3499 17.6109 74.8714 17.5232 74.5222 17.7643Z" fill="#3F83F8"/>
  <path d="M74.049 15.4971L73.376 15.5788C72.9548 15.6299 72.6547 16.0129 72.7058 16.4341C72.757 16.8553 73.1399 17.1554 73.5611 17.1042L74.2341 17.0226C74.6553 16.9714 74.9554 16.5885 74.9042 16.1673C74.8531 15.746 74.4702 15.446 74.049 15.4971Z" fill="#3F83F8"/>
  <path d="M74.0641 13.0105C73.6673 12.86 73.2237 13.0597 73.0732 13.4564C72.9228 13.8532 73.1224 14.2968 73.5192 14.4473L74.153 14.6877C74.5498 14.8381 74.9934 14.6385 75.1438 14.2417C75.2943 13.845 75.0947 13.4014 74.6979 13.2509L74.0641 13.0105Z" fill="#3F83F8"/>
  <path d="M75.8549 11.0536C75.5736 10.736 75.088 10.7067 74.7704 10.9881C74.4528 11.2695 74.4234 11.755 74.7048 12.0726L75.1544 12.58C75.4357 12.8976 75.9213 12.927 76.2389 12.6456C76.5565 12.3642 76.5859 11.8787 76.3045 11.5611L75.8549 11.0536Z" fill="#3F83F8"/>
  <path d="M78.3516 10.1569C78.25 9.74496 77.8337 9.49332 77.4217 9.59489C77.0098 9.69647 76.7581 10.1128 76.8597 10.5248L77.022 11.183C77.1236 11.595 77.5399 11.8466 77.9519 11.745C78.3638 11.6434 78.6155 11.2271 78.5139 10.8151L78.3516 10.1569Z" fill="#3F83F8"/>
  <path d="M79.4907 10.1642L79.3284 10.8224C79.2269 11.2344 79.4785 11.6507 79.8905 11.7523C80.3025 11.8539 80.7188 11.6022 80.8204 11.1902L80.9827 10.532C81.0842 10.12 80.8326 9.70372 80.4206 9.60215C80.0086 9.50057 79.5923 9.75221 79.4907 10.1642Z" fill="#3F83F8"/>
  <path d="M81.9825 11.0572L81.5329 11.5646C81.2515 11.8822 81.2809 12.3678 81.5985 12.6491C81.9161 12.9305 82.4017 12.9012 82.6831 12.5836L83.1326 12.0762C83.414 11.7586 83.3846 11.273 83.067 10.9916C82.7494 10.7102 82.2639 10.7396 81.9825 11.0572Z" fill="#3F83F8"/>
  <path d="M83.778 13.0033L83.1442 13.2437C82.7474 13.3941 82.5478 13.8377 82.6982 14.2345C82.8487 14.6312 83.2923 14.8309 83.6891 14.6804L84.3229 14.44C84.7197 14.2895 84.9193 13.8459 84.7688 13.4492C84.6184 13.0524 84.1748 12.8528 83.778 13.0033Z" fill="#3F83F8"/>
  <path d="M83.7799 15.4876C83.3586 15.4364 82.9757 15.7365 82.9246 16.1577C82.8735 16.5789 83.1735 16.9619 83.5947 17.013L84.2677 17.0947C84.6889 17.1458 85.0719 16.8457 85.123 16.4245C85.1741 16.0033 84.8741 15.6204 84.4528 15.5692L83.7799 15.4876Z" fill="#3F83F8"/>
  <path d="M83.3098 17.763C82.9606 17.522 82.4821 17.6097 82.2411 17.959C82.0001 18.3082 82.0878 18.7867 82.437 19.0277L82.995 19.4127C83.3442 19.6537 83.8227 19.566 84.0637 19.2168C84.3047 18.8676 84.217 18.3891 83.8677 18.1481L83.3098 17.763Z" fill="#3F83F8"/>
  <path d="M81.8309 19.5747C81.6337 19.1989 81.1693 19.0542 80.7936 19.2514C80.4179 19.4486 80.2731 19.913 80.4703 20.2887L80.7853 20.889C80.9825 21.2647 81.4469 21.4095 81.8226 21.2123C82.1984 21.0151 82.3431 20.5507 82.1459 20.1749L81.8309 19.5747Z" fill="#3F83F8"/>
  <path d="M70.7895 13.2886C70.1003 12.283 69.0495 11.5712 67.5129 11.5712C65.2928 11.5712 63.711 13.266 63.711 15.65C63.711 18.0339 65.2928 19.7287 67.5129 19.7287C69.0947 19.7287 70.1907 18.9491 70.8573 17.921L72.3205 19.4124C71.4053 20.8755 69.6653 21.9545 67.5129 21.9545C63.824 21.9545 61.1914 19.2768 61.1914 15.6782C61.1914 12.0796 63.8918 9.40186 67.5129 9.40186C69.5523 9.40186 71.2019 10.2718 72.2979 11.7858L70.7839 13.2999L70.7895 13.2886Z" fill="#3F83F8"/>
  <path d="M103.391 9.396C106.278 9.396 108.34 11.2942 108.34 14.1131V21.5815H105.865V14.0679C105.865 12.6048 104.837 11.571 103.414 11.571C101.99 11.571 100.939 12.5991 100.939 14.0679V21.5815H98.4648V14.0228C98.4648 11.2772 100.504 9.396 103.391 9.396Z" fill="#3F83F8"/>
  <path d="M91.1957 9.396C94.0825 9.396 96.1445 11.2942 96.1445 14.1131V21.5815H93.6701V14.0679C93.6701 12.6048 92.6419 11.571 91.2183 11.571C89.7947 11.571 88.7439 12.5991 88.7439 14.0679V21.5815H86.2695V14.0228C86.2695 11.2772 88.3089 9.396 91.1957 9.396Z" fill="#3F83F8"/>
  <path d="M116.123 21.9487C112.457 21.9487 109.824 19.2709 109.824 15.6723C109.824 12.0738 112.457 9.396 116.078 9.396C119.699 9.396 121.897 12.0512 121.897 15.6723C121.897 15.9492 121.874 16.339 121.829 16.5649H112.417C112.739 18.5139 114.135 19.7229 116.151 19.7229C117.615 19.7229 118.671 19.1975 119.518 18.1185L120.959 19.6099C119.79 21.1691 118.14 21.943 116.129 21.943L116.123 21.9487ZM112.412 14.7798H119.445C119.264 12.9042 117.931 11.571 116.033 11.571C114.135 11.571 112.734 12.8308 112.412 14.7798Z" fill="#3F83F8"/>
  <path d="M132.176 13.2886C131.487 12.283 130.436 11.5712 128.9 11.5712C126.679 11.5712 125.098 13.266 125.098 15.65C125.098 18.0339 126.679 19.7287 128.9 19.7287C130.481 19.7287 131.577 18.9491 132.244 17.921L133.707 19.4124C132.792 20.8755 131.052 21.9545 128.9 21.9545C125.211 21.9545 122.578 19.2768 122.578 15.6782C122.578 12.0796 125.278 9.40186 128.9 9.40186C130.939 9.40186 132.589 10.2718 133.685 11.7858L132.171 13.2999L132.176 13.2886Z" fill="#3F83F8"/>
  <path d="M135.475 11.9157H134.215V9.76336H135.475V6.6958H137.949V9.76336H141.158V11.9157H137.949V19.4067H140.813V21.5816H135.475V11.9157Z" fill="#3F83F8"/>
  <path d="M79.3378 18.3505C79.3378 18.1165 79.1494 17.9268 78.917 17.9268C78.6845 17.9268 78.4961 18.1165 78.4961 18.3505V18.7177C78.4961 18.9517 78.6845 19.1414 78.917 19.1414C79.1494 19.1414 79.3378 18.9517 79.3378 18.7177V18.3505Z" fill="#3F83F8"/>
  <path d="M77.3128 17.8495L77.1422 18.1746C77.0335 18.3818 77.1122 18.6374 77.318 18.7454C77.5238 18.8534 77.7788 18.773 77.8875 18.5658L78.0582 18.2406C78.1669 18.0334 78.0882 17.7779 77.8824 17.6699C77.6766 17.5619 77.4216 17.6423 77.3128 17.8495Z" fill="#3F83F8"/>
  <path d="M76.5024 16.8583L76.2002 17.0669C76.0077 17.1998 75.9586 17.4627 76.0907 17.654C76.2227 17.8453 76.4859 17.8925 76.6785 17.7596L76.9806 17.551C77.1732 17.418 77.2223 17.1552 77.0902 16.9639C76.9582 16.7726 76.695 16.7253 76.5024 16.8583Z" fill="#3F83F8"/>
  <path d="M76.2461 15.6161L75.8815 15.6604C75.6493 15.6886 75.4836 15.8985 75.5116 16.1292C75.5397 16.36 75.7507 16.5242 75.983 16.496L76.3475 16.4517C76.5798 16.4236 76.7454 16.2136 76.7174 15.9829C76.6894 15.7521 76.4784 15.5879 76.2461 15.6161Z" fill="#3F83F8"/>
  <path d="M76.2493 14.2455C76.0306 14.1626 75.7864 14.2715 75.7039 14.4888C75.6215 14.7061 75.7321 14.9496 75.9508 15.0326L76.2942 15.1628C76.513 15.2458 76.7572 15.1369 76.8396 14.9195C76.922 14.7022 76.8115 14.4587 76.5927 14.3757L76.2493 14.2455Z" fill="#3F83F8"/>
  <path d="M77.2313 13.174C77.0761 12.9988 76.8093 12.9818 76.6353 13.1359C76.4613 13.2901 76.4461 13.557 76.6013 13.7322L76.8448 14.007C77 14.1822 77.2668 14.1992 77.4408 14.0451C77.6148 13.8909 77.63 13.624 77.4748 13.4488L77.2313 13.174Z" fill="#3F83F8"/>
  <path d="M78.5984 12.6811C78.5424 12.4539 78.314 12.3148 78.0883 12.3704C77.8626 12.4261 77.7251 12.6554 77.7811 12.8826L77.869 13.2391C77.925 13.4663 78.1534 13.6054 78.3791 13.5497C78.6048 13.4941 78.7423 13.2648 78.6863 13.0376L78.5984 12.6811Z" fill="#3F83F8"/>
  <path d="M79.2284 12.6852L79.1405 13.0417C79.0845 13.2689 79.222 13.4982 79.4477 13.5539C79.6734 13.6095 79.9017 13.4704 79.9578 13.2432L80.0457 12.8867C80.1017 12.6595 79.9641 12.4302 79.7384 12.3746C79.5128 12.3189 79.2844 12.458 79.2284 12.6852Z" fill="#3F83F8"/>
  <path d="M80.5948 13.1766L80.3513 13.4514C80.1961 13.6266 80.2114 13.8935 80.3853 14.0477C80.5593 14.2018 80.8261 14.1848 80.9813 14.0096L81.2248 13.7348C81.38 13.5596 81.3648 13.2927 81.1908 13.1385C81.0168 12.9844 80.75 13.0014 80.5948 13.1766Z" fill="#3F83F8"/>
  <path d="M81.5793 14.2425L81.236 14.3727C81.0172 14.4557 80.9067 14.6991 80.9891 14.9165C81.0715 15.1338 81.3157 15.2427 81.5345 15.1597L81.8778 15.0295C82.0966 14.9465 82.2072 14.7031 82.1247 14.4858C82.0423 14.2684 81.7981 14.1595 81.5793 14.2425Z" fill="#3F83F8"/>
  <path d="M81.5845 15.6046C81.3522 15.5764 81.1412 15.7406 81.1132 15.9714C81.0852 16.2021 81.2508 16.412 81.4831 16.4402L81.8476 16.4845C82.0799 16.5126 82.2909 16.3484 82.319 16.1177C82.347 15.8869 82.1813 15.677 81.9491 15.6488L81.5845 15.6046Z" fill="#3F83F8"/>
  <path d="M81.3229 16.8545C81.1303 16.7216 80.8672 16.7689 80.7351 16.9602C80.6031 17.1516 80.6522 17.4144 80.8448 17.5473L81.147 17.7559C81.3396 17.8888 81.6028 17.8414 81.7348 17.6501C81.8668 17.4588 81.8177 17.196 81.6251 17.0631L81.3229 16.8545Z" fill="#3F83F8"/>
  <path d="M80.5204 17.8512C80.4116 17.644 80.1566 17.5636 79.9508 17.6716C79.745 17.7796 79.6663 18.0352 79.775 18.2424L79.9456 18.5675C80.0544 18.7747 80.3094 18.8551 80.5152 18.7471C80.721 18.6391 80.7997 18.3836 80.691 18.1764L80.5204 17.8512Z" fill="#3F83F8"/>
  <path d="M7.57552 10.9534H10.0028V20.4734H7.57552V19.4654C7.10371 19.9078 6.62622 20.227 6.15442 20.423C5.67693 20.619 5.15965 20.7142 4.60826 20.7142C3.3577 20.7142 2.28335 20.2382 1.36816 19.2862C0.458658 18.3342 0.00390625 17.147 0.00390625 15.7302C0.00390625 14.3134 0.447289 13.0534 1.32837 12.1182C2.20945 11.1774 3.27812 10.707 4.54005 10.707C5.11986 10.707 5.66556 10.8134 6.17147 11.0318C6.67738 11.2502 7.14919 11.5694 7.5812 12.0006V10.9478L7.57552 10.9534ZM5.02891 12.9134C4.27857 12.9134 3.65897 13.1766 3.15874 13.6974C2.6642 14.2182 2.41409 14.8902 2.41409 15.7078C2.41409 16.5254 2.6642 17.2086 3.17011 17.735C3.67602 18.267 4.29562 18.5302 5.03459 18.5302C5.77356 18.5302 6.42727 18.267 6.9275 17.7462C7.42772 17.2254 7.67784 16.5422 7.67784 15.6966C7.67784 14.851 7.42772 14.1958 6.9275 13.6862C6.42727 13.1766 5.79062 12.9134 5.02323 12.9134H5.02891Z" fill="#0A0A0A"/>
  <path d="M12.2244 10.9534H14.6517V12.0454C15.0666 11.5974 15.5271 11.2614 16.033 11.0374C16.5389 10.8134 17.0903 10.707 17.6928 10.707C18.2954 10.707 18.8411 10.8526 19.3299 11.1438C19.8131 11.435 20.2053 11.8606 20.5009 12.4206C20.8875 11.8606 21.3593 11.435 21.9163 11.1438C22.4791 10.8526 23.0873 10.707 23.7524 10.707C24.4175 10.707 25.0427 10.8638 25.5657 11.1774C26.0887 11.491 26.4638 11.9054 26.6912 12.4094C26.9186 12.919 27.0323 13.7422 27.0323 14.8846V20.4678H24.588V15.6406C24.588 14.5598 24.4516 13.8318 24.1787 13.451C23.9059 13.0702 23.4966 12.8798 22.9509 12.8798C22.5359 12.8798 22.1664 12.9974 21.8367 13.227C21.507 13.4622 21.2626 13.7814 21.1035 14.1958C20.9443 14.6046 20.8647 15.2654 20.8647 16.1782V20.4734H18.4204V15.8646C18.4204 15.0134 18.3579 14.3974 18.2272 14.0166C18.1021 13.6358 17.9088 13.3502 17.653 13.1654C17.3972 12.9806 17.0903 12.8854 16.7265 12.8854C16.3229 12.8854 15.9591 13.003 15.6294 13.2382C15.2997 13.4734 15.0553 13.8038 14.8904 14.2294C14.7256 14.655 14.646 15.327 14.646 16.2398V20.4734H12.2188V10.9534H12.2244Z" fill="#0A0A0A"/>
  <path d="M31.598 7.27979V12.0062C32.0357 11.575 32.5075 11.2502 33.0191 11.0374C33.5307 10.819 34.0707 10.7126 34.6562 10.7126C35.9182 10.7126 36.9868 11.183 37.8736 12.1238C38.7547 13.0646 39.1981 14.2686 39.1981 15.7358C39.1981 17.203 38.7433 18.3398 37.8281 19.2918C36.9186 20.2438 35.8329 20.7198 34.588 20.7198C34.031 20.7198 33.5137 20.6246 33.0362 20.4286C32.5587 20.2326 32.0812 19.9134 31.6037 19.471V20.479H29.1992V7.27979H31.6037H31.598ZM34.1446 12.9134C33.3829 12.9134 32.7463 13.171 32.2461 13.6862C31.7401 14.2014 31.49 14.8678 31.49 15.6966C31.49 16.5254 31.7401 17.2254 32.2461 17.7462C32.752 18.267 33.3829 18.5302 34.1446 18.5302C34.9063 18.5302 35.5089 18.267 36.0148 17.735C36.5207 17.203 36.7765 16.5254 36.7765 15.7078C36.7765 14.8902 36.5264 14.2238 36.0319 13.6974C35.5373 13.1766 34.9064 12.9134 34.1503 12.9134H34.1446Z" fill="#0A0A0A"/>
  <path d="M50.5884 16.4022H42.8008C42.9145 17.0798 43.2157 17.6174 43.7046 18.015C44.1935 18.4126 44.8187 18.6142 45.5748 18.6142C46.4786 18.6142 47.2573 18.3006 47.9111 17.679L49.9517 18.6254C49.4402 19.3366 48.8319 19.863 48.1214 20.2046C47.4108 20.5462 46.5695 20.7142 45.5918 20.7142C44.0741 20.7142 42.8406 20.2438 41.8856 19.303C40.9306 18.3622 40.4531 17.1806 40.4531 15.7638C40.4531 14.347 40.9306 13.1038 41.8799 12.1462C42.8292 11.1886 44.0229 10.707 45.4554 10.707C46.9788 10.707 48.2123 11.1886 49.1673 12.1462C50.1223 13.1038 50.5998 14.375 50.5998 15.9486L50.5884 16.4022ZM48.1612 14.5206C48.002 13.9886 47.6837 13.5574 47.2119 13.227C46.7401 12.8966 46.1944 12.7286 45.5691 12.7286C44.8926 12.7286 44.3015 12.9134 43.7899 13.2886C43.4715 13.5238 43.1703 13.9326 42.8974 14.5206H48.1555H48.1612Z" fill="#0A0A0A"/>
  <path d="M52 10.9534H54.0805V12.1518C54.3079 11.6814 54.6035 11.323 54.9786 11.0766C55.3538 10.8302 55.7631 10.707 56.2064 10.707C56.5191 10.707 56.8488 10.791 57.1898 10.9534L56.4338 13.0086C56.1496 12.8686 55.9165 12.8014 55.7346 12.8014C55.3595 12.8014 55.0468 13.031 54.791 13.4846C54.5352 13.9382 54.4045 14.8342 54.4045 16.1614L54.4159 16.6262V20.4734H52.0114V10.9534H52Z" fill="#0A0A0A"/>
</svg>
