<svg width="15" height="14" viewBox="0 0 15 14" fill="none" xmlns="http://www.w3.org/2000/svg">
<path fill-rule="evenodd" clip-rule="evenodd" d="M6.42167 0.550401C6.58899 0.213242 6.9329 0 7.30929 0C7.68568 0 8.02959 0.213242 8.19691 0.550401L9.92552 4.03346L13.7723 4.60112C14.1446 4.65609 14.4537 4.91726 14.57 5.27521C14.6863 5.63321 14.5898 6.02616 14.3209 6.2895L11.5424 9.00979L12.1913 12.8438C12.254 13.2149 12.1012 13.5895 11.7967 13.8108C11.4922 14.032 11.0886 14.0616 10.7551 13.8872L7.30929 12.0854L3.86353 13.8872C3.52995 14.0616 3.12637 14.032 2.82187 13.8108C2.51736 13.5895 2.36449 13.2149 2.42733 12.8438L3.07616 9.00979L0.297727 6.2895C0.0287516 6.02616 -0.0677976 5.63321 0.048543 5.27521C0.164825 4.91726 0.473911 4.65609 0.846307 4.60112L4.69307 4.03346L6.42167 0.550401Z" fill="url(#paint0_linear_5094_4810)"/>
<path fill-rule="evenodd" clip-rule="evenodd" d="M7.30859 0.0541992C7.68498 0.0541992 8.0289 0.267442 8.19621 0.6046L9.92482 4.08766L13.7716 4.65532C14.1439 4.71029 14.453 4.97146 14.5693 5.3294C14.5712 5.33516 14.573 5.34086 14.5747 5.34661L7.30859 7.68858V0.0541992Z" fill="url(#paint1_linear_5094_4810)"/>
<path fill-rule="evenodd" clip-rule="evenodd" d="M7.30912 7.68858L0.0429688 5.34661C0.0446719 5.34086 0.0464924 5.33516 0.0483717 5.3294C0.164654 4.97146 0.47374 4.71029 0.846136 4.65532L4.69289 4.08766L6.4215 0.6046C6.58882 0.267442 6.93273 0.0541992 7.30912 0.0541992V7.68858Z" fill="url(#paint2_linear_5094_4810)"/>
<path fill-rule="evenodd" clip-rule="evenodd" d="M11.8013 13.7913C11.7921 13.7983 11.7828 13.8053 11.7734 13.8121C11.4689 14.0314 11.0654 14.0608 10.7318 13.8879L7.28602 12.1014L3.84026 13.8879C3.51244 14.0578 3.11702 14.0324 2.81445 13.8232L7.28602 7.68848L11.8013 13.7913Z" fill="url(#paint3_linear_5094_4810)"/>
<defs>
<linearGradient id="paint0_linear_5094_4810" x1="7.30929" y1="5.63233" x2="7.30929" y2="12.8008" gradientUnits="userSpaceOnUse">
<stop stop-color="#FFB541"/>
<stop offset="1" stop-color="#F59500"/>
</linearGradient>
<linearGradient id="paint1_linear_5094_4810" x1="7.06385" y1="0.377969" x2="12.2253" y2="7.46835" gradientUnits="userSpaceOnUse">
<stop stop-color="#FFD952"/>
<stop offset="1" stop-color="#FFA501"/>
</linearGradient>
<linearGradient id="paint2_linear_5094_4810" x1="3.33551" y1="1.38819" x2="8.19023" y2="5.99709" gradientUnits="userSpaceOnUse">
<stop stop-color="#FFDF6C"/>
<stop offset="1" stop-color="#FFA501"/>
</linearGradient>
<linearGradient id="paint3_linear_5094_4810" x1="7.30787" y1="5.12346" x2="7.30787" y2="12.7823" gradientUnits="userSpaceOnUse">
<stop stop-color="#FFA841"/>
<stop offset="1" stop-color="#F27B00"/>
</linearGradient>
</defs>
</svg>
