<svg width="24" height="24" viewBox="0 0 24 24" fill="none" xmlns="http://www.w3.org/2000/svg">
<path fill-rule="evenodd" clip-rule="evenodd" d="M10.9654 2.98192C11.1574 2.59488 11.5522 2.3501 11.9843 2.3501C12.4164 2.3501 12.8111 2.59488 13.0032 2.98192L14.9875 6.98021L19.4033 7.63185C19.8307 7.69495 20.1855 7.99475 20.3191 8.40565C20.4526 8.81661 20.3417 9.26769 20.033 9.56998L16.8436 12.6927L17.5884 17.0938C17.6605 17.5198 17.485 17.9498 17.1355 18.2039C16.7859 18.4578 16.3226 18.4918 15.9398 18.2916L11.9843 16.2232L8.0288 18.2916C7.64588 18.4918 7.1826 18.4578 6.83305 18.2039C6.4835 17.9498 6.30801 17.5198 6.38015 17.0938L7.12496 12.6927L3.93552 9.56998C3.62675 9.26769 3.51592 8.81661 3.64947 8.40565C3.78296 7.99475 4.13777 7.69495 4.56525 7.63185L8.98105 6.98021L10.9654 2.98192Z" fill="url(#paint0_linear_5093_4375)"/>
<path fill-rule="evenodd" clip-rule="evenodd" d="M11.9844 2.4126C12.4164 2.4126 12.8112 2.65738 13.0033 3.04442L14.9876 7.04271L19.4034 7.69435C19.8308 7.75745 20.1856 8.05725 20.3192 8.46815C20.3213 8.47476 20.3234 8.48129 20.3254 8.4879L11.9844 11.1763V2.4126Z" fill="url(#paint1_linear_5093_4375)"/>
<path fill-rule="evenodd" clip-rule="evenodd" d="M11.9855 11.1763L3.64453 8.4879C3.64649 8.48129 3.64858 8.47476 3.65073 8.46815C3.78422 8.05725 4.13903 7.75745 4.56651 7.69435L8.98231 7.04271L10.9666 3.04442C11.1587 2.65738 11.5535 2.4126 11.9855 2.4126V11.1763Z" fill="url(#paint2_linear_5093_4375)"/>
<path fill-rule="evenodd" clip-rule="evenodd" d="M17.1424 18.1818C17.1319 18.1899 17.1212 18.1979 17.1104 18.2057C16.7608 18.4575 16.2976 18.4912 15.9147 18.2927L11.9592 16.242L8.00372 18.2927C7.62741 18.4878 7.1735 18.4586 6.82617 18.2185L11.9592 11.1763L17.1424 18.1818Z" fill="url(#paint3_linear_5093_4375)"/>
<path fill-rule="evenodd" clip-rule="evenodd" d="M11.7051 18.2374V22.069C11.7051 22.224 11.8309 22.3499 11.986 22.3499C12.141 22.3499 12.2669 22.224 12.2669 22.069V18.2374C12.2669 18.0824 12.141 17.9565 11.986 17.9565C11.8309 17.9565 11.7051 18.0824 11.7051 18.2374Z" fill="url(#paint4_radial_5093_4375)"/>
<path fill-rule="evenodd" clip-rule="evenodd" d="M18.7595 13.4695L22.3807 14.7216C22.5272 14.7723 22.6873 14.6944 22.7379 14.5479C22.7886 14.4014 22.7108 14.2413 22.5643 14.1907L18.943 12.9386C18.7965 12.8879 18.6364 12.9657 18.5858 13.1123C18.5351 13.2588 18.613 13.4189 18.7595 13.4695Z" fill="url(#paint5_radial_5093_4375)"/>
<path fill-rule="evenodd" clip-rule="evenodd" d="M5.02716 12.9386L1.40599 14.1907C1.25943 14.2413 1.18163 14.4014 1.23226 14.5479C1.28295 14.6944 1.443 14.7723 1.58956 14.7216L5.2108 13.4695C5.35729 13.4189 5.43509 13.2588 5.38446 13.1123C5.33376 12.9657 5.17372 12.8879 5.02716 12.9386Z" fill="url(#paint6_radial_5093_4375)"/>
<path fill-rule="evenodd" clip-rule="evenodd" d="M16.774 5.21699L18.9458 2.06045C19.0337 1.93276 19.0014 1.75769 18.8737 1.66984C18.7459 1.58193 18.5709 1.61429 18.483 1.74205L16.3112 4.89858C16.2233 5.02627 16.2557 5.20135 16.3834 5.28919C16.5111 5.3771 16.6861 5.34474 16.774 5.21699Z" fill="url(#paint7_radial_5093_4375)"/>
<path fill-rule="evenodd" clip-rule="evenodd" d="M7.93417 4.87713L5.4706 1.94253C5.37089 1.82381 5.19359 1.8083 5.07487 1.90801C4.95608 2.00772 4.94065 2.18502 5.04036 2.30374L7.50386 5.23835C7.60357 5.35706 7.78087 5.3725 7.89966 5.27286C8.01838 5.17315 8.03382 4.99585 7.93417 4.87713Z" fill="url(#paint8_radial_5093_4375)"/>
<defs>
<linearGradient id="paint0_linear_5093_4375" x1="11.9843" y1="8.8156" x2="11.9843" y2="17.0444" gradientUnits="userSpaceOnUse">
<stop stop-color="#FFB541"/>
<stop offset="1" stop-color="#F59500"/>
</linearGradient>
<linearGradient id="paint1_linear_5093_4375" x1="11.7034" y1="2.78426" x2="17.6284" y2="10.9235" gradientUnits="userSpaceOnUse">
<stop stop-color="#FFD952"/>
<stop offset="1" stop-color="#FFA501"/>
</linearGradient>
<linearGradient id="paint2_linear_5093_4375" x1="7.42412" y1="3.94392" x2="12.997" y2="9.2346" gradientUnits="userSpaceOnUse">
<stop stop-color="#FFDF6C"/>
<stop offset="1" stop-color="#FFA501"/>
</linearGradient>
<linearGradient id="paint3_linear_5093_4375" x1="11.9843" y1="8.23182" x2="11.9843" y2="17.0236" gradientUnits="userSpaceOnUse">
<stop stop-color="#FFA841"/>
<stop offset="1" stop-color="#F27B00"/>
</linearGradient>
<radialGradient id="paint4_radial_5093_4375" cx="0" cy="0" r="1" gradientUnits="userSpaceOnUse" gradientTransform="translate(11.988 11.1741) rotate(18.851) scale(11.0207 11.0207)">
<stop stop-color="#FFA501"/>
<stop offset="0.57" stop-color="#FFAF0E"/>
<stop offset="1" stop-color="#FFD541"/>
</radialGradient>
<radialGradient id="paint5_radial_5093_4375" cx="0" cy="0" r="1" gradientUnits="userSpaceOnUse" gradientTransform="translate(11.9876 11.1739) rotate(18.851) scale(11.0207)">
<stop stop-color="#FFA501"/>
<stop offset="0.57" stop-color="#FFAF0E"/>
<stop offset="1" stop-color="#FFD541"/>
</radialGradient>
<radialGradient id="paint6_radial_5093_4375" cx="0" cy="0" r="1" gradientUnits="userSpaceOnUse" gradientTransform="translate(11.9867 11.1739) rotate(18.851) scale(11.0207)">
<stop stop-color="#FFA501"/>
<stop offset="0.57" stop-color="#FFAF0E"/>
<stop offset="1" stop-color="#FFD541"/>
</radialGradient>
<radialGradient id="paint7_radial_5093_4375" cx="0" cy="0" r="1" gradientUnits="userSpaceOnUse" gradientTransform="translate(11.9864 11.1741) rotate(18.851) scale(11.0207)">
<stop stop-color="#FFA501"/>
<stop offset="0.57" stop-color="#FFAF0E"/>
<stop offset="1" stop-color="#FFD541"/>
</radialGradient>
<radialGradient id="paint8_radial_5093_4375" cx="0" cy="0" r="1" gradientUnits="userSpaceOnUse" gradientTransform="translate(11.9875 11.174) rotate(18.851) scale(11.0207 11.0207)">
<stop stop-color="#FFA501"/>
<stop offset="0.57" stop-color="#FFAF0E"/>
<stop offset="1" stop-color="#FFD541"/>
</radialGradient>
</defs>
</svg>
