<svg xmlns="http://www.w3.org/2000/svg" width="48" height="56" viewBox="0 0 48 56" fill="none" aria-hidden="true">
  <defs>
    <linearGradient id="ss-body" x1="24" y1="4" x2="24" y2="50" gradientUnits="userSpaceOnUse">
      <stop stop-color="#F3F4F6"/>
      <stop offset="0.4" stop-color="#D1D5DB"/>
      <stop offset="1" stop-color="#9CA3AF"/>
    </linearGradient>
    <linearGradient id="ss-edge" x1="10" y1="6" x2="38" y2="18" gradientUnits="userSpaceOnUse">
      <stop stop-color="#FFFFFF" stop-opacity="0.95"/>
      <stop offset="0.4" stop-color="#E5E7EB" stop-opacity="0.5"/>
      <stop offset="1" stop-color="#9CA3AF" stop-opacity="0"/>
    </linearGradient>
    <filter id="ss-sh" x="-30%" y="-20%" width="160%" height="160%" color-interpolation-filters="sRGB">
      <feDropShadow dx="0" dy="3" stdDeviation="2.2" flood-color="#000" flood-opacity="0.28"/>
      <feDropShadow dx="0" dy="6" stdDeviation="5" flood-color="#000" flood-opacity="0.12"/>
    </filter>
  </defs>
  <path filter="url(#ss-sh)" fill="url(#ss-body)" d="M24 3c6.2 0 10.8 1.8 13.2 3.3.7.4 1.1 1.1 1.1 1.9v18.5c0 9.2-5.4 16.5-13.6 22.4a1.4 1.4 0 01-1.4 0C15.1 42.2 9.7 34.9 9.7 25.7V8.2c0-.8.4-1.5 1.1-1.9C13.2 4.8 17.8 3 24 3z"/>
  <path fill="url(#ss-edge)" fill-opacity="0.9" d="M24 4.2c5.8 0 10.1 1.7 12.3 3 .5.3.8.8.8 1.3v17.2c0 8.5-5 15.3-12.6 20.8a.2.2 0 01-.2 0C16.7 41 11.7 34.2 11.7 25.7V8.5c0-.5.3-1 .8-1.3 2.2-1.3 6.5-3 12.5-3z"/>
</svg>
